<?xml version="1.0" encoding="utf-8" standalone="no"?>
<!DOCTYPE svg PUBLIC "-//W3C//DTD SVG 1.1//EN"
  "http://www.w3.org/Graphics/SVG/1.1/DTD/svg11.dtd">
<svg xmlns:xlink="http://www.w3.org/1999/xlink" width="760.536pt" height="273.6pt" viewBox="0 0 760.536 273.6" xmlns="http://www.w3.org/2000/svg" version="1.1">
 <metadata>
  <rdf:RDF xmlns:dc="http://purl.org/dc/elements/1.1/" xmlns:cc="http://creativecommons.org/ns#" xmlns:rdf="http://www.w3.org/1999/02/22-rdf-syntax-ns#">
   <cc:Work>
    <dc:type rdf:resource="http://purl.org/dc/dcmitype/StillImage"/>
    <dc:date>2026-09-24T15:41:54.436656</dc:date>
    <dc:format>image/svg+xml</dc:format>
    <dc:creator>
     <cc:Agent>
      <dc:title>Matplotlib v3.11.2, https://matplotlib.org/</dc:title>
     </cc:Agent>
    </dc:creator>
   </cc:Work>
  </rdf:RDF>
 </metadata>
 <defs>
  <style type="text/css">*{stroke-linejoin: round; stroke-linecap: butt}</style>
 </defs>
 <g id="figure_1">
  <g id="patch_1">
   <path d="M 0 273.6 
L 760.536 273.6 
L 760.536 -0 
L 0 -0 
z
" style="fill: #ffffff"/>
  </g>
  <g id="axes_1">
   <g id="patch_2">
    <path d="M 160.848 257.76 
L 744.696 257.76 
L 744.696 112.86 
L 160.848 112.86 
z
" style="fill: #ffffff"/>
   </g>
   <g id="matplotlib.axis_1">
    <g id="xtick_1">
     <g id="line2d_1"/>
     <g id="text_1">
      <text style="font-size: 11px; font-family: 'Myriad Pro'; text-anchor: middle; fill: #65767b" x="233.829" y="98.11" transform="rotate(-0 233.829 98.11)">Neutral</text>
     </g>
    </g>
    <g id="xtick_2">
     <g id="line2d_2"/>
     <g id="text_2">
      <text style="font-size: 11px; font-family: 'Myriad Pro'; text-anchor: middle; fill: #65767b" x="379.791" y="98.11" transform="rotate(-0 379.791 98.11)">Future assistant</text>
     </g>
    </g>
    <g id="xtick_3">
     <g id="line2d_3"/>
     <g id="text_3">
      <text style="font-size: 11px; font-family: 'Myriad Pro'; text-anchor: middle; fill: #65767b" x="525.753" y="98.11" transform="rotate(-0 525.753 98.11)">Successor</text>
     </g>
    </g>
    <g id="xtick_4">
     <g id="line2d_4"/>
     <g id="text_4">
      <text style="font-size: 11px; font-family: 'Myriad Pro'; text-anchor: middle; fill: #65767b" x="671.715" y="98.11" transform="rotate(-0 671.715 98.11)">Model-final</text>
     </g>
    </g>
   </g>
   <g id="matplotlib.axis_2">
    <g id="ytick_1">
     <g id="line2d_5"/>
     <g id="text_5">
      <text style="font-size: 12px; font-family: 'Myriad Pro'; text-anchor: end; fill: #24363c" x="148.848" y="158.76" transform="rotate(-0 148.848 158.76)">Qwen3.5 · 9B</text>
     </g>
    </g>
    <g id="ytick_2">
     <g id="line2d_6"/>
     <g id="text_6">
      <text style="font-size: 12px; font-family: 'Myriad Pro'; text-anchor: end; fill: #24363c" x="148.848" y="227.76" transform="rotate(-0 148.848 227.76)">Qwen3.5 · 27B</text>
     </g>
    </g>
   </g>
   <g id="line2d_7">
    <path d="M 160.848 188.76 
L 744.696 188.76 
" clip-path="url(#pc77710d4fb)" style="fill: none; stroke: #e6ecec; stroke-width: 0.7; stroke-linecap: square"/>
   </g>
   <g id="PathCollection_1">
    <defs>
     <path id="m7540e5ea4a" d="M 0 5 
C 1.326016 5 2.597899 4.473168 3.535534 3.535534 
C 4.473168 2.597899 5 1.326016 5 0 
C 5 -1.326016 4.473168 -2.597899 3.535534 -3.535534 
C 2.597899 -4.473168 1.326016 -5 0 -5 
C -1.326016 -5 -2.597899 -4.473168 -3.535534 -3.535534 
C -4.473168 -2.597899 -5 -1.326016 -5 0 
C -5 1.326016 -4.473168 2.597899 -3.535534 3.535534 
C -2.597899 4.473168 -1.326016 5 0 5 
z
" style="stroke: #16877f; stroke-width: 1.25"/>
    </defs>
    <g clip-path="url(#pc77710d4fb)">
     <use xlink:href="#m7540e5ea4a" x="224.706375" y="148.74" style="fill: #16877f; stroke: #16877f; stroke-width: 1.25"/>
    </g>
   </g>
   <g id="PathCollection_2">
    <defs>
     <path id="m002a537d1b" d="M 0 5 
C 1.326016 5 2.597899 4.473168 3.535534 3.535534 
C 4.473168 2.597899 5 1.326016 5 0 
C 5 -1.326016 4.473168 -2.597899 3.535534 -3.535534 
C 2.597899 -4.473168 1.326016 -5 0 -5 
C -1.326016 -5 -2.597899 -4.473168 -3.535534 -3.535534 
C -4.473168 -2.597899 -5 -1.326016 -5 0 
C -5 1.326016 -4.473168 2.597899 -3.535534 3.535534 
C -2.597899 4.473168 -1.326016 5 0 5 
z
" style="stroke: #7957a2; stroke-width: 1.25"/>
    </defs>
    <g clip-path="url(#pc77710d4fb)">
     <use xlink:href="#m002a537d1b" x="242.951625" y="148.74" style="fill: #ede6f3; stroke: #7957a2; stroke-width: 1.25"/>
    </g>
   </g>
   <g id="text_7">
    <text style="font-size: 10px; font-family: 'Myriad Pro'; text-anchor: middle; fill: #24363c" x="233.829" y="174.01" transform="rotate(-0 233.829 174.01)">1 / 2</text>
   </g>
   <g id="PathCollection_3">
    <g clip-path="url(#pc77710d4fb)">
     <use xlink:href="#m7540e5ea4a" x="370.668375" y="148.74" style="fill: #16877f; stroke: #16877f; stroke-width: 1.25"/>
    </g>
   </g>
   <g id="PathCollection_4">
    <g clip-path="url(#pc77710d4fb)">
     <use xlink:href="#m002a537d1b" x="388.913625" y="148.74" style="fill: #ede6f3; stroke: #7957a2; stroke-width: 1.25"/>
    </g>
   </g>
   <g id="text_8">
    <text style="font-size: 10px; font-family: 'Myriad Pro'; text-anchor: middle; fill: #24363c" x="379.791" y="174.01" transform="rotate(-0 379.791 174.01)">1 / 2</text>
   </g>
   <g id="PathCollection_5">
    <g clip-path="url(#pc77710d4fb)">
     <use xlink:href="#m7540e5ea4a" x="516.630375" y="148.74" style="fill: #16877f; stroke: #16877f; stroke-width: 1.25"/>
    </g>
   </g>
   <g id="PathCollection_6">
    <g clip-path="url(#pc77710d4fb)">
     <use xlink:href="#m7540e5ea4a" x="534.875625" y="148.74" style="fill: #16877f; stroke: #16877f; stroke-width: 1.25"/>
    </g>
   </g>
   <g id="text_9">
    <text style="font-size: 10px; font-family: 'Myriad Pro'; text-anchor: middle; fill: #24363c" x="525.753" y="174.01" transform="rotate(-0 525.753 174.01)">2 / 2</text>
   </g>
   <g id="PathCollection_7">
    <g clip-path="url(#pc77710d4fb)">
     <use xlink:href="#m7540e5ea4a" x="662.592375" y="148.74" style="fill: #16877f; stroke: #16877f; stroke-width: 1.25"/>
    </g>
   </g>
   <g id="PathCollection_8">
    <g clip-path="url(#pc77710d4fb)">
     <use xlink:href="#m7540e5ea4a" x="680.837625" y="148.74" style="fill: #16877f; stroke: #16877f; stroke-width: 1.25"/>
    </g>
   </g>
   <g id="text_10">
    <text style="font-size: 10px; font-family: 'Myriad Pro'; text-anchor: middle; fill: #24363c" x="671.715" y="174.01" transform="rotate(-0 671.715 174.01)">2 / 2</text>
   </g>
   <g id="PathCollection_9">
    <g clip-path="url(#pc77710d4fb)">
     <use xlink:href="#m002a537d1b" x="224.706375" y="217.74" style="fill: #ede6f3; stroke: #7957a2; stroke-width: 1.25"/>
    </g>
   </g>
   <g id="PathCollection_10">
    <g clip-path="url(#pc77710d4fb)">
     <use xlink:href="#m002a537d1b" x="242.951625" y="217.74" style="fill: #ede6f3; stroke: #7957a2; stroke-width: 1.25"/>
    </g>
   </g>
   <g id="text_11">
    <text style="font-size: 10px; font-family: 'Myriad Pro'; text-anchor: middle; fill: #24363c" x="233.829" y="243.01" transform="rotate(-0 233.829 243.01)">0 / 2</text>
   </g>
   <g id="PathCollection_11">
    <defs>
     <path id="mf20546e27c" d="M -2.5 5 
L 0 2.5 
L 2.5 5 
L 5 2.5 
L 2.5 0 
L 5 -2.5 
L 2.5 -5 
L 0 -2.5 
L -2.5 -5 
L -5 -2.5 
L -2.5 0 
L -5 2.5 
z
" style="stroke: #d69936; stroke-width: 1.25"/>
    </defs>
    <g clip-path="url(#pc77710d4fb)">
     <use xlink:href="#mf20546e27c" x="370.668375" y="217.74" style="fill: #d69936; stroke: #d69936; stroke-width: 1.25"/>
    </g>
   </g>
   <g id="PathCollection_12">
    <g clip-path="url(#pc77710d4fb)">
     <use xlink:href="#m7540e5ea4a" x="388.913625" y="217.74" style="fill: #16877f; stroke: #16877f; stroke-width: 1.25"/>
    </g>
   </g>
   <g id="text_12">
    <text style="font-size: 10px; font-family: 'Myriad Pro'; text-anchor: middle; fill: #24363c" x="379.791" y="243.01" transform="rotate(-0 379.791 243.01)">1 / 2</text>
   </g>
   <g id="PathCollection_13">
    <g clip-path="url(#pc77710d4fb)">
     <use xlink:href="#m7540e5ea4a" x="516.630375" y="217.74" style="fill: #16877f; stroke: #16877f; stroke-width: 1.25"/>
    </g>
   </g>
   <g id="PathCollection_14">
    <g clip-path="url(#pc77710d4fb)">
     <use xlink:href="#m002a537d1b" x="534.875625" y="217.74" style="fill: #ede6f3; stroke: #7957a2; stroke-width: 1.25"/>
    </g>
   </g>
   <g id="text_13">
    <text style="font-size: 10px; font-family: 'Myriad Pro'; text-anchor: middle; fill: #24363c" x="525.753" y="243.01" transform="rotate(-0 525.753 243.01)">1 / 2</text>
   </g>
   <g id="PathCollection_15">
    <g clip-path="url(#pc77710d4fb)">
     <use xlink:href="#m002a537d1b" x="662.592375" y="217.74" style="fill: #ede6f3; stroke: #7957a2; stroke-width: 1.25"/>
    </g>
   </g>
   <g id="PathCollection_16">
    <g clip-path="url(#pc77710d4fb)">
     <use xlink:href="#m002a537d1b" x="680.837625" y="217.74" style="fill: #ede6f3; stroke: #7957a2; stroke-width: 1.25"/>
    </g>
   </g>
   <g id="text_14">
    <text style="font-size: 10px; font-family: 'Myriad Pro'; text-anchor: middle; fill: #24363c" x="671.715" y="243.01" transform="rotate(-0 671.715 243.01)">0 / 2</text>
   </g>
  </g>
  <g id="text_15">
   <text style="font-weight: 600; font-size: 20px; font-family: 'Myriad Pro'; text-anchor: start; fill: #24363c" x="15.84" y="30.84" transform="rotate(-0 15.84 30.84)">Constitution editing by Qwen3.5 model size</text>
  </g>
  <g id="legend_1">
   <g id="line2d_8">
    <defs>
     <path id="m1a43190d69" d="M 0 4 
C 1.060812 4 2.078319 3.578535 2.828427 2.828427 
C 3.578535 2.078319 4 1.060812 4 0 
C 4 -1.060812 3.578535 -2.078319 2.828427 -2.828427 
C 2.078319 -3.578535 1.060812 -4 0 -4 
C -1.060812 -4 -2.078319 -3.578535 -2.828427 -2.828427 
C -3.578535 -2.078319 -4 -1.060812 -4 0 
C -4 1.060812 -3.578535 2.078319 -2.828427 2.828427 
C -2.078319 3.578535 -1.060812 4 0 4 
z
" style="stroke: #16877f"/>
    </defs>
    <g>
     <use xlink:href="#m1a43190d69" x="31.7872" y="62.86" style="fill: #16877f; stroke: #16877f"/>
    </g>
   </g>
   <g id="text_16">
    <text style="font-size: 10px; font-family: 'Myriad Pro'; text-anchor: start; fill: #24363c" x="47.2872" y="66.36" transform="rotate(-0 47.2872 66.36)">Edited</text>
   </g>
   <g id="line2d_9">
    <defs>
     <path id="ma1acd15e35" d="M 0 4 
C 1.060812 4 2.078319 3.578535 2.828427 2.828427 
C 3.578535 2.078319 4 1.060812 4 0 
C 4 -1.060812 3.578535 -2.078319 2.828427 -2.828427 
C 2.078319 -3.578535 1.060812 -4 0 -4 
C -1.060812 -4 -2.078319 -3.578535 -2.828427 -2.828427 
C -3.578535 -2.078319 -4 -1.060812 -4 0 
C -4 1.060812 -3.578535 2.078319 -2.828427 2.828427 
C -2.078319 3.578535 -1.060812 4 0 4 
z
" style="stroke: #7957a2"/>
    </defs>
    <g>
     <use xlink:href="#ma1acd15e35" x="104.048137" y="62.86" style="fill: #ede6f3; stroke: #7957a2"/>
    </g>
   </g>
   <g id="text_17">
    <text style="font-size: 10px; font-family: 'Myriad Pro'; text-anchor: start; fill: #24363c" x="119.548137" y="66.36" transform="rotate(-0 119.548137 66.36)">Retained</text>
   </g>
   <g id="line2d_10">
    <defs>
     <path id="m420fcb0388" d="M -2 4 
L 0 2 
L 2 4 
L 4 2 
L 2 0 
L 4 -2 
L 2 -4 
L 0 -2 
L -2 -4 
L -4 -2 
L -2 0 
L -4 2 
z
" style="stroke: #d69936; stroke-linejoin: miter"/>
    </defs>
    <g>
     <use xlink:href="#m420fcb0388" x="186.648137" y="62.86" style="fill: #d69936; stroke: #d69936; stroke-linejoin: miter"/>
    </g>
   </g>
   <g id="text_18">
    <text style="font-size: 10px; font-family: 'Myriad Pro'; text-anchor: start; fill: #24363c" x="202.148137" y="66.36" transform="rotate(-0 202.148137 66.36)">Failed / blocked</text>
   </g>
  </g>
 </g>
 <defs>
  <clipPath id="pc77710d4fb">
   <rect x="160.848" y="112.86" width="583.848" height="144.9"/>
  </clipPath>
 </defs>
</svg>
